<svg width="1546" height="240" viewBox="0 0 1546 240" fill="none" xmlns="http://www.w3.org/2000/svg">
<path d="M205.114 81.7046H162.614C161.402 74.7349 159.167 68.5607 155.909 63.1819C152.652 57.7274 148.598 53.1061 143.75 49.3183C138.902 45.5304 133.371 42.6895 127.159 40.7955C121.023 38.8258 114.394 37.841 107.273 37.841C94.6212 37.841 83.4091 41.0228 73.6364 47.3864C63.8637 53.6743 56.2121 62.9167 50.6818 75.1137C45.1515 87.2349 42.3864 102.046 42.3864 119.546C42.3864 137.349 45.1515 152.349 50.6818 164.546C56.2879 176.667 63.9394 185.833 73.6364 192.046C83.4091 198.182 94.5833 201.25 107.159 201.25C114.129 201.25 120.644 200.341 126.705 198.523C132.841 196.629 138.333 193.864 143.182 190.227C148.106 186.591 152.235 182.121 155.568 176.818C158.977 171.515 161.326 165.455 162.614 158.636L205.114 158.864C203.523 169.924 200.076 180.303 194.773 190C189.545 199.697 182.689 208.258 174.205 215.682C165.72 223.03 155.795 228.788 144.432 232.955C133.068 237.046 120.455 239.091 106.591 239.091C86.1364 239.091 67.8788 234.356 51.8182 224.886C35.7576 215.417 23.1061 201.743 13.8637 183.864C4.62123 165.985 1.43051e-05 144.546 1.43051e-05 119.546C1.43051e-05 94.4698 4.65911 73.0304 13.9773 55.2274C23.2955 37.3486 35.9849 23.6743 52.0455 14.2046C68.1061 4.73493 86.2879 8.01086e-05 106.591 8.01086e-05C119.545 8.01086e-05 131.591 1.81826 142.727 5.45462C153.864 9.09099 163.788 14.4319 172.5 21.4774C181.212 28.4471 188.371 37.0077 193.977 47.1592C199.659 57.2349 203.371 68.7501 205.114 81.7046ZM451.676 119.546C451.676 144.621 446.979 166.099 437.585 183.977C428.267 201.78 415.54 215.417 399.403 224.886C383.343 234.356 365.123 239.091 344.744 239.091C324.366 239.091 306.108 234.356 289.972 224.886C273.911 215.341 261.184 201.667 251.79 183.864C242.472 165.985 237.813 144.546 237.813 119.546C237.813 94.4698 242.472 73.0304 251.79 55.2274C261.184 37.3486 273.911 23.6743 289.972 14.2046C306.108 4.73493 324.366 8.01086e-05 344.744 8.01086e-05C365.123 8.01086e-05 383.343 4.73493 399.403 14.2046C415.54 23.6743 428.267 37.3486 437.585 55.2274C446.979 73.0304 451.676 94.4698 451.676 119.546ZM409.29 119.546C409.29 101.894 406.525 87.0077 400.994 74.8864C395.54 62.6895 387.964 53.4849 378.267 47.2728C368.57 40.9849 357.396 37.841 344.744 37.841C332.093 37.841 320.919 40.9849 311.222 47.2728C301.525 53.4849 293.911 62.6895 288.381 74.8864C282.926 87.0077 280.199 101.894 280.199 119.546C280.199 137.197 282.926 152.121 288.381 164.318C293.911 176.439 301.525 185.644 311.222 191.932C320.919 198.144 332.093 201.25 344.744 201.25C357.396 201.25 368.57 198.144 378.267 191.932C387.964 185.644 395.54 176.439 400.994 164.318C406.525 152.121 409.29 137.197 409.29 119.546ZM682.784 3.1819V235.909H645.284L535.625 77.3864H533.693V235.909H491.534V3.1819H529.261L638.807 161.818H640.852V3.1819H682.784ZM718.494 38.5228V3.1819H904.176V38.5228H832.244V235.909H790.426V38.5228H718.494ZM941.733 235.909H896.733L978.665 3.1819H1030.71L1112.76 235.909H1067.76L1005.6 50.9092H1003.78L941.733 235.909ZM943.21 144.659H1065.94V178.523H943.21V144.659ZM1331.68 81.7046H1289.18C1287.96 74.7349 1285.73 68.5607 1282.47 63.1819C1279.21 57.7274 1275.16 53.1061 1270.31 49.3183C1265.46 45.5304 1259.93 42.6895 1253.72 40.7955C1247.59 38.8258 1240.96 37.841 1233.84 37.841C1221.18 37.841 1209.97 41.0228 1200.2 47.3864C1190.43 53.6743 1182.77 62.9167 1177.24 75.1137C1171.71 87.2349 1168.95 102.046 1168.95 119.546C1168.95 137.349 1171.71 152.349 1177.24 164.546C1182.85 176.667 1190.5 185.833 1200.2 192.046C1209.97 198.182 1221.15 201.25 1233.72 201.25C1240.69 201.25 1247.21 200.341 1253.27 198.523C1259.4 196.629 1264.9 193.864 1269.74 190.227C1274.67 186.591 1278.8 182.121 1282.13 176.818C1285.54 171.515 1287.89 165.455 1289.18 158.636L1331.68 158.864C1330.09 169.924 1326.64 180.303 1321.34 190C1316.11 199.697 1309.25 208.258 1300.77 215.682C1292.28 223.03 1282.36 228.788 1270.99 232.955C1259.63 237.046 1247.02 239.091 1233.15 239.091C1212.7 239.091 1194.44 234.356 1178.38 224.886C1162.32 215.417 1149.67 201.743 1140.43 183.864C1131.18 165.985 1126.56 144.546 1126.56 119.546C1126.56 94.4698 1131.22 73.0304 1140.54 55.2274C1149.86 37.3486 1162.55 23.6743 1178.61 14.2046C1194.67 4.73493 1212.85 8.01086e-05 1233.15 8.01086e-05C1246.11 8.01086e-05 1258.15 1.81826 1269.29 5.45462C1280.43 9.09099 1290.35 14.4319 1299.06 21.4774C1307.77 28.4471 1314.93 37.0077 1320.54 47.1592C1326.22 57.2349 1329.93 68.7501 1331.68 81.7046ZM1360.06 38.5228V3.1819H1545.74V38.5228H1473.81V235.909H1431.99V38.5228H1360.06Z" fill="white"/>
</svg>
