<svg width="210" height="157" viewBox="0 0 210 157" fill="none" xmlns="http://www.w3.org/2000/svg">
<path d="M209.251 2.05656C209.453 1.77881 209.536 1.4322 209.482 1.09296C209.429 0.753731 209.243 0.449671 208.965 0.247672C208.687 0.0456736 208.341 -0.0377169 208.001 0.0158458C207.662 0.0694084 207.358 0.255537 207.156 0.533285C207.156 0.533285 207.156 0.533285 207.156 0.533285C204.53 4.19686 201.779 7.68149 198.835 11.0785C198.804 11.1137 198.774 11.1491 198.743 11.1845C195.33 15.18 191.584 18.8521 187.689 22.4165C180.565 28.9131 173.098 35.0719 165.631 41.1763C165.474 41.3037 165.317 41.4317 165.16 41.5602C136.17 64.9913 106.518 87.7508 76.3734 109.711C75.8971 110.055 75.4242 110.397 74.9548 110.735C59.551 121.796 43.965 132.621 27.5052 141.883C26.8353 142.258 26.1275 142.651 25.4524 143.022C22.9101 144.414 20.349 145.815 17.8101 147.022C17.0736 147.367 16.438 147.556 15.6264 147.834C15.5698 147.854 15.5148 147.875 15.4611 147.895C15.2663 147.97 15.0858 148.041 14.9308 148.097C14.7845 148.153 14.6226 148.196 14.6597 148.186C14.6747 148.184 14.7037 148.178 14.7939 148.177C14.8831 148.181 15.0352 148.169 15.3437 148.299C15.6514 148.41 16.0608 148.844 16.1526 149.172C16.2629 149.505 16.2353 149.653 16.2313 149.755C16.1796 150.063 16.2039 149.873 16.2592 149.787C20.7922 140.069 30.0998 133.075 37.0973 124.312C37.6539 123.662 38.1589 123.067 38.7114 122.411C44.3097 115.766 49.9936 109.124 55.6239 102.471C58.4453 99.1358 61.2563 95.7999 64.0414 92.4337C65.4318 90.7517 66.8132 89.0672 68.1903 87.3414C68.8769 86.4797 69.5525 85.6221 70.2282 84.7266C70.5775 84.2619 70.9069 83.8169 71.2415 83.3263C71.3056 83.2325 71.4272 83.0493 71.5095 82.9173C71.5535 82.8471 71.5953 82.7784 71.6354 82.7099C71.6753 82.6422 71.7522 82.5058 71.8074 82.392C71.837 82.3315 71.8665 82.2677 71.8965 82.1947C71.9114 82.1582 71.9265 82.1194 71.9417 82.0768C71.9569 82.0351 72.0093 81.8819 72.0378 81.7223C72.0657 81.5529 72.1036 81.326 72.0328 80.9551C71.9776 80.6018 71.6726 80.0154 71.1974 79.7271C70.2091 79.1747 69.6921 79.4904 69.4468 79.5437C69.3227 79.5877 69.1869 79.6561 69.1619 79.6696C69.1265 79.688 69.0936 79.706 69.0625 79.7238C69.0003 79.7593 68.9447 79.7938 68.8917 79.8284C68.786 79.8974 68.6899 79.9668 68.5916 80.0414C68.4407 80.1561 68.2872 80.282 68.1188 80.4259C67.9436 80.5761 67.8515 80.658 67.7061 80.7882C49.2967 98.9895 32.2491 117.801 14.8638 136.592C14.8036 136.658 14.7436 136.723 14.6839 136.789C12.131 139.575 9.60675 142.343 7.09097 145.142C5.82929 146.547 4.58726 147.939 3.33532 149.376C2.71759 150.086 2.09616 150.807 1.47539 151.561C1.1633 151.945 0.870206 152.296 0.515084 152.804C0.476287 152.861 0.417452 152.949 0.36269 153.04C0.334885 153.086 0.310241 153.126 0.263356 153.215C0.215188 153.312 0.195865 153.33 0.109154 153.57C0.0681138 153.698 0.015877 153.86 0.00198364 154.145C-0.00451124 154.237 -0.0129606 154.766 0.289025 155.24C0.580018 155.752 1.22032 156.059 1.49143 156.102C1.82292 156.175 2.054 156.153 2.22276 156.13C2.30752 156.117 2.37783 156.101 2.43906 156.085C2.47552 156.075 2.5081 156.066 2.5385 156.056C2.65937 156.017 2.7432 155.98 2.81411 155.947C3.04382 155.835 3.12683 155.772 3.21245 155.717C3.53302 155.497 3.71212 155.345 3.9149 155.182C4.28243 154.883 4.64846 154.591 5.01749 154.304C13.9922 147.516 25.3043 143.446 35.938 138.561C36.2502 138.423 36.5693 138.287 36.8852 138.157C46.85 134.23 58.0014 132.558 68.8144 130.098C69.0505 130.047 69.2881 129.995 69.5271 129.944C87.6207 126.056 105.813 122.499 123.959 118.638C124.012 118.627 124.065 118.616 124.118 118.604C124.21 118.585 124.301 118.565 124.393 118.545C131.022 117.103 137.685 115.658 144.253 113.78C144.268 113.776 144.282 113.772 144.297 113.768L142.775 113.575C142.549 113.447 142.234 113.204 142.013 112.792C141.904 112.59 141.828 112.356 141.797 112.132C141.769 111.925 141.774 111.758 141.794 111.599C141.889 110.973 142.148 110.717 142.189 110.648C142.358 110.438 142.442 110.384 142.481 110.349C142.579 110.273 142.59 110.27 142.607 110.259C142.629 110.246 142.608 110.26 142.58 110.275C142.526 110.307 142.442 110.35 142.354 110.396C142.18 110.485 141.985 110.583 141.788 110.682C141.393 110.88 140.988 111.085 140.58 111.295C139.766 111.714 138.946 112.148 138.117 112.571L138.088 112.584C138.077 112.59 138.065 112.596 138.053 112.602C136.93 113.2 135.872 113.892 134.829 114.547C134.567 114.713 134.374 114.99 134.287 115.302C134.199 115.616 134.223 115.939 134.362 116.216C134.501 116.493 134.744 116.706 135.047 116.824C135.35 116.941 135.687 116.953 135.977 116.843C135.977 116.843 135.977 116.843 135.977 116.843C137.129 116.4 138.268 116 139.387 115.602C139.399 115.598 139.411 115.594 139.422 115.59L139.393 115.603C140.263 115.311 141.146 115.041 142.03 114.747C142.474 114.599 142.914 114.448 143.365 114.275C143.591 114.188 143.816 114.098 144.056 113.992C144.18 113.936 144.302 113.88 144.449 113.805C144.529 113.763 144.607 113.722 144.723 113.651C144.794 113.606 144.847 113.576 144.993 113.461C145.051 113.411 145.163 113.333 145.347 113.103C145.394 113.027 145.665 112.751 145.761 112.114C145.781 111.951 145.787 111.782 145.757 111.571C145.726 111.344 145.649 111.107 145.538 110.902C145.314 110.484 144.993 110.235 144.76 110.103L144.034 109.69L143.238 109.91C143.221 109.915 143.204 109.919 143.187 109.924C136.74 111.769 130.155 113.199 123.552 114.635C123.461 114.654 123.369 114.674 123.278 114.694C123.225 114.705 123.173 114.716 123.12 114.727C105.033 118.576 86.8296 122.135 68.6839 126.034C68.4439 126.085 68.2054 126.137 67.9684 126.188C57.1392 128.673 46.1633 130.372 35.4127 134.606C35.072 134.748 34.7269 134.896 34.3887 135.045C23.7059 140.005 12.566 143.9 2.6864 151.307C2.2921 151.613 1.90331 151.924 1.51579 152.24C1.35434 152.372 1.1682 152.517 1.09648 152.564C1.09029 152.571 1.06584 152.577 1.19295 152.514C1.23405 152.495 1.29086 152.469 1.38774 152.438C1.43523 152.436 1.72174 152.277 2.34743 152.402C2.60775 152.442 3.23436 152.742 3.51817 153.243C3.81253 153.707 3.8015 154.209 3.79598 154.292C3.78293 154.556 3.73645 154.69 3.70645 154.785C3.60845 155.045 3.61001 154.997 3.61019 155.007C3.61188 155.004 3.63194 154.973 3.64911 154.948C3.83126 154.684 4.13169 154.31 4.40989 153.971C4.98489 153.272 5.59463 152.564 6.19913 151.869C7.42773 150.459 8.66167 149.076 9.91547 147.68C12.417 144.896 14.9356 142.135 17.4833 139.354C17.5429 139.289 17.6028 139.223 17.6629 139.158C34.966 120.448 52.2438 101.39 70.2154 83.5802C70.3417 83.4669 70.4216 83.3958 70.5588 83.2778C70.689 83.1662 70.7951 83.0803 70.8631 83.0285C70.9083 82.994 70.9386 82.9732 70.9427 82.9706C70.9446 82.9693 70.9397 82.9726 70.9241 82.9815C70.8978 82.9931 70.9257 82.9921 70.7312 83.069C70.6377 83.1012 70.5027 83.1494 70.2527 83.1665C70.0122 83.1805 69.5942 83.1566 69.1562 82.875C68.6989 82.598 68.4068 82.0318 68.3569 81.7053C68.2916 81.3614 68.3283 81.1689 68.3486 81.0411C68.4067 80.7759 68.4154 80.8082 68.4249 80.7729C68.434 80.7508 68.4382 80.7427 68.4381 80.7429C68.4067 80.8085 68.2704 81.0278 68.1377 81.2228C67.8694 81.6187 67.5608 82.0403 67.2337 82.4779C66.5966 83.3281 65.9374 84.1724 65.2672 85.0218C63.9207 86.7257 62.5583 88.4083 61.1876 90.0906C58.4409 93.4588 55.6653 96.8136 52.8785 100.168C47.3161 106.864 41.6965 113.554 36.1033 120.219C35.5584 120.869 35.0602 121.458 34.5108 122.101C27.6578 130.758 18.3391 137.549 13.2115 148.291C13.0951 148.564 12.9504 148.735 12.8512 149.438C12.8382 149.643 12.8123 149.885 12.956 150.315C13.0798 150.737 13.5616 151.249 13.9603 151.399C14.7592 151.694 14.99 151.545 15.2291 151.533C16.0179 151.367 16.2961 151.198 16.673 151.066C16.7208 151.048 16.7673 151.03 16.8124 151.012C17.5502 150.745 18.439 150.297 19.1849 149.936C21.8892 148.63 24.4191 147.215 26.9863 145.8C27.665 145.423 28.3787 145.026 29.0551 144.646C45.7066 135.264 61.3504 124.395 76.7959 113.286C77.2665 112.947 77.7405 112.604 78.2179 112.257C108.42 90.2137 137.986 67.3553 166.975 43.7817C167.133 43.6524 167.29 43.5236 167.446 43.3953C174.919 37.2492 182.341 30.9908 189.491 24.3714C193.396 20.7458 197.221 16.9546 200.703 12.8773C200.734 12.8414 200.765 12.8056 200.796 12.7699C203.768 9.34289 206.616 5.7332 209.251 2.05656Z" fill="#BF2121"/>
</svg>
